<svg xmlns="http://www.w3.org/2000/svg" viewBox="0 0 512 512" width="100%" height="100%">
  <defs>
    <linearGradient id="bronzeGrad" x1="0%" y1="0%" x2="100%" y2="100%">
      <stop offset="0%" stop-color="#00A896" />
      <stop offset="50%" stop-color="#028090" />
      <stop offset="100%" stop-color="#023E8A" />
    </linearGradient>

    <linearGradient id="accentGrad" x1="0%" y1="0%" x2="100%" y2="0%">
      <stop offset="0%" stop-color="#FF6B6B" />
      <stop offset="100%" stop-color="#FF8E53" />
    </linearGradient>

    <linearGradient id="steamGrad" x1="0%" y1="100%" x2="0%" y2="0%">
      <stop offset="0%" stop-color="#00A896" stop-opacity="0.05" />
      <stop offset="100%" stop-color="#028090" stop-opacity="0.7" />
    </linearGradient>

    <filter id="subtleShadow" x="-10%" y="-10%" width="130%" height="130%">
      <feDropShadow dx="0" dy="12" stdDeviation="16" flood-color="#028090" flood-opacity="0.18" />
    </filter>
  </defs>

  <rect width="512" height="512" rx="112" fill="#FFFFFF" />

  <g filter="url(#subtleShadow)">
    
    <g stroke="url(#steamGrad)" stroke-width="12" stroke-linecap="round" fill="none">
      <path d="M 210,105 C 185,70 235,35 210,5" />
      <path d="M 256,95 C 235,50 275,20 256,-15" />
      <path d="M 302,105 C 277,70 327,35 302,5" />
    </g>

    <g stroke="url(#accentGrad)" stroke-width="16" stroke-linecap="round">
      <line x1="485" y1="45" x2="115" y2="415" />
      <line x1="505" y1="62" x2="135" y2="432" />
    </g>

    <path d="M 52,220 C 52,155 460,155 460,220 Z" fill="url(#accentGrad)" opacity="0.9" />
    <path d="M 80,210 Q 140,170 200,210 T 320,210 T 440,210" fill="none" stroke="#FFFFFF" stroke-width="7" stroke-linecap="round" opacity="0.9" />

    <path d="M 50,220 C 50,395 150,450 256,450 C 362,450 462,395 462,220 Z" fill="url(#bronzeGrad)" />
    <rect x="34" y="204" width="444" height="24" rx="12" fill="#028090" />
    <path d="M 160,450 L 352,450 L 332,490 L 180,490 Z" fill="#023E8A" />

    <g stroke="#FFFFFF" stroke-width="6" stroke-linecap="round" stroke-linejoin="round" fill="none" opacity="0.9">
      <path d="M 256,270 L 256,350 M 235,290 L 256,270 L 277,290" />
      <circle cx="155" cy="305" r="18" stroke-width="7" />
      <circle cx="357" cy="305" r="18" stroke-width="7" />
      <path d="M 105,305 Q 155,260 205,305" />
      <path d="M 307,305 Q 357,260 407,305" />
      <path d="M 115,350 Q 155,390 205,355 T 230,320" />
      <path d="M 397,350 Q 357,390 307,355 T 282,320" />
      <path d="M 75,255 L 100,255 L 100,275 L 85,275" />
      <path d="M 437,255 L 412,255 L 412,275 L 427,275" />
    </g>

  </g>
</svg>
